# xmcd CD database file
#
# Track frame offsets:
#	150
#	22297
#	45755
#	72405
#	92322
#	114475
#	136222
#	161010
#	185427
#	212820
#	234432
#	260100
#	281327
#	301755
#
# Disc length: 4383 seconds
#
# Revision: 2
# Processed by: cddbd v1.4PL0 Copyright (c) Steve Scherf et al.
# Submitted via: CDex 1.40Release
#
DISCID=bc111d0e
DTITLE=Dr Victor And The Rasta Rebels - Hello Africa
DYEAR=1993
DGENRE=Reggae
TTITLE0=Gimme Hope Jo'anna
TTITLE1=Hello Africa
TTITLE2=I Dont Wanna Dance
TTITLE3=Tum-Bai (The Ragged Trousered Percussionist)
TTITLE4=Do You Feel My Love
TTITLE5=Where Is Our Land
TTITLE6=Restless World
TTITLE7=Respet The Rastaman (12" Remix)
TTITLE8=Living On The Frontline
TTITLE9=Respect The Rastaman (7" Remix)
TTITLE10=Living  On The Frontline
TTITLE11=Good And Great (Shall Rule The World)
TTITLE12=Weve Got The Power
TTITLE13=Tum-Bai (12" Remix Extended)
EXTD=YEAR: 1993 ID3G: 16
EXTT0=
EXTT1=
EXTT2=
EXTT3=
EXTT4=
EXTT5=
EXTT6=
EXTT7=
EXTT8=
EXTT9=
EXTT10=
EXTT11=
EXTT12=
EXTT13=
PLAYORDER=
